<svg version="1.1" id="Layer_1" xmlns="http://www.w3.org/2000/svg" xmlns:xlink="http://www.w3.org/1999/xlink" x="0px" y="0px"
	 width="100%" viewBox="0 0 3212 3216" enable-background="new 0 0 3212 3216" xml:space="preserve">
<path  
	d="
M2.000000,1242.000000 
	C2.000000,828.000061 2.000000,415.000153 2.000000,2.000166 
	C1072.666382,2.000111 2143.332764,2.000111 3213.999512,2.000055 
	C3213.999512,1073.999512 3213.999512,2145.999023 3213.999756,3217.999023 
	C2143.333984,3217.999268 1072.667969,3217.999268 2.000973,3217.999512 
	C2.000000,2559.666748 2.000000,1901.333374 2.000000,1242.000000 
M1129.901001,2152.370117 
	C1144.446289,2178.527344 1160.959961,2203.374756 1179.387573,2226.960449 
	C1214.545776,2271.959473 1254.245239,2312.393311 1299.131226,2347.807617 
	C1349.023438,2387.171875 1399.634888,2425.497803 1453.256470,2459.711182 
	C1488.325439,2482.087158 1524.571533,2502.444580 1562.391846,2519.650391 
	C1595.925537,2534.906250 1630.143677,2548.724609 1664.419922,2562.265869 
	C1727.168701,2587.056152 1791.378662,2607.608154 1856.828857,2623.851318 
	C1904.142578,2635.593018 1951.809204,2646.147949 1999.684814,2655.320068 
	C2042.294678,2663.483887 2085.339844,2669.503906 2128.321777,2675.553711 
	C2159.480713,2679.938965 2190.814209,2683.194580 2222.136475,2686.276611 
	C2251.829834,2689.198486 2281.571045,2692.352783 2311.361572,2693.388672 
	C2349.541992,2694.716064 2387.801758,2695.603271 2425.995117,2692.381348 
	C2452.421143,2690.152344 2478.916260,2688.706787 2505.317627,2686.238770 
	C2538.691406,2683.118896 2571.663574,2677.261719 2604.369873,2669.948730 
	C2606.229004,2669.532959 2609.231445,2668.802490 2609.519043,2667.666260 
	C2611.355469,2660.408936 2617.942139,2657.582031 2622.551514,2653.045166 
	C2660.992188,2615.208984 2698.746582,2576.752197 2732.191650,2534.308594 
	C2734.517822,2531.356201 2736.738525,2528.320312 2739.008301,2525.323242 
	C2738.692871,2524.672852 2738.377441,2524.022461 2738.061768,2523.372070 
	C2728.282227,2524.135498 2718.512939,2525.092041 2708.720947,2525.624756 
	C2682.207764,2527.067871 2655.691162,2528.483398 2629.163330,2529.616211 
	C2607.914062,2530.523438 2586.649902,2531.161865 2565.385986,2531.619629 
	C2545.074463,2532.057373 2524.754395,2532.296631 2504.438477,2532.281250 
	C2479.489746,2532.262207 2454.539307,2531.995850 2429.592529,2531.628906 
	C2413.313232,2531.389648 2397.038330,2530.807861 2380.762939,2530.331299 
	C2358.836182,2529.689209 2336.906982,2529.102783 2314.985840,2528.298584 
	C2298.061768,2527.677979 2281.130127,2527.038330 2264.235352,2525.906494 
	C2240.097168,2524.289307 2215.975830,2522.372314 2191.872803,2520.291016 
	C2168.427490,2518.266846 2144.943359,2516.439209 2121.602539,2513.515625 
	C2084.795898,2508.905762 2048.096680,2503.437744 2011.348511,2498.356934 
	C1955.499146,2490.634766 1899.940918,2481.217529 1844.744629,2469.705322 
	C1781.947754,2456.607666 1719.978638,2440.485596 1659.596802,2418.637939 
	C1590.758911,2393.731201 1523.495728,2365.247559 1459.283081,2329.904053 
	C1407.659790,2301.489502 1361.076904,2266.233887 1319.427856,2224.665771 
	C1295.194092,2200.479004 1272.954102,2174.414795 1251.721436,2147.501953 
	C1236.463501,2128.162598 1221.743530,2108.498535 1209.385254,2087.146484 
	C1189.346436,2052.524170 1176.126709,2015.409546 1171.023315,1975.797119 
	C1168.655762,1957.420044 1168.662354,1938.676025 1168.568237,1920.093506 
	C1168.523071,1911.201782 1170.750488,1902.298462 1172.207031,1891.480591 
	C1174.984741,1896.584961 1176.646118,1899.792725 1178.445557,1902.921021 
	C1198.871582,1938.429688 1221.384033,1972.576294 1245.664673,2005.557983 
	C1285.372925,2059.496094 1328.801758,2110.139160 1377.529663,2156.234131 
	C1407.533691,2184.617432 1438.975952,2211.159424 1472.363037,2235.444824 
	C1505.525146,2259.566162 1540.411255,2280.912354 1577.111328,2299.116699 
	C1616.167114,2318.489502 1656.916870,2333.715820 1698.564697,2346.629150 
	C1741.733521,2360.013672 1785.515747,2370.935791 1829.798706,2379.797363 
	C1872.712036,2388.385254 1915.949585,2394.981689 1959.369019,2400.624512 
	C2011.650635,2407.419922 2064.147217,2411.614746 2116.673340,2415.564697 
	C2142.148682,2417.480225 2167.693359,2418.609619 2193.226318,2419.584717 
	C2219.805908,2420.599609 2246.406738,2421.456055 2273.002197,2421.576904 
	C2335.666992,2421.862061 2398.335693,2421.420898 2460.999756,2421.781982 
	C2488.658203,2421.941162 2516.178711,2419.987305 2543.291992,2415.359375 
	C2580.849854,2408.948486 2618.297363,2401.529541 2655.388672,2392.823975 
	C2724.286133,2376.653320 2791.927002,2355.955566 2858.980225,2333.345215 
	C2862.364746,2332.203857 2866.008545,2331.831299 2869.882080,2331.028320 
	C2871.125977,2329.065674 2872.668945,2326.887939 2873.951904,2324.566406 
	C2884.883545,2304.782227 2895.717285,2284.944336 2906.677246,2265.176025 
	C2924.912842,2232.283691 2941.395752,2198.563232 2954.587891,2163.311035 
	C2978.468262,2099.497559 2998.387207,2034.379028 3018.252930,1969.246094 
	C3020.632080,1961.445923 3022.885742,1953.607666 3025.548584,1944.600342 
	C3017.324219,1945.676880 3011.620117,1948.816650 3006.210938,1952.480835 
	C2941.419922,1996.372437 2873.611816,2035.150513 2804.173828,2071.093994 
	C2754.861328,2096.619873 2704.527832,2120.030273 2653.168213,2141.183594 
	C2586.135742,2168.791992 2517.756104,2192.408691 2447.538818,2210.594727 
	C2409.286133,2220.502197 2370.516113,2227.803467 2331.629395,2234.722900 
	C2279.064209,2244.076416 2226.234619,2251.325928 2173.090820,2256.156250 
	C2133.732422,2259.733398 2094.288574,2262.005859 2054.713379,2261.758545 
	C2023.464478,2261.563477 1992.235840,2261.582764 1961.102905,2258.360352 
	C1938.354614,2256.005615 1915.472534,2254.637695 1892.853027,2251.408691 
	C1837.277588,2243.473877 1782.666138,2230.921143 1728.625854,2215.709473 
	C1686.274536,2203.788330 1645.102417,2189.262451 1606.659302,2167.391602 
	C1545.749268,2132.738525 1492.421509,2088.325439 1441.937012,2040.295898 
	C1407.673462,2007.698364 1377.029663,1971.688354 1345.622437,1936.371582 
	C1316.832642,1903.998169 1295.890381,1867.671631 1282.072388,1826.841675 
	C1266.837891,1781.826050 1253.704712,1736.207031 1241.985107,1690.170532 
	C1238.466675,1676.349609 1234.500366,1662.569946 1232.195801,1648.532227 
	C1229.620483,1632.845947 1211.717163,1622.597656 1197.715942,1630.110840 
	C1184.077759,1637.429565 1172.937134,1647.963623 1162.642944,1659.249756 
	C1143.599121,1680.128418 1126.057495,1702.314209 1110.787476,1726.063477 
	C1092.812988,1754.019043 1075.444214,1782.399292 1058.810791,1811.172119 
	C1042.208862,1839.890259 1031.715332,1871.330322 1020.874390,1902.546997 
	C1003.582886,1952.338623 996.577881,2003.781494 996.412537,2056.260498 
	C996.348694,2076.535645 996.850586,2096.830078 997.761597,2117.085693 
	C998.700195,2137.953857 1000.201233,2158.806396 1001.907532,2179.628418 
	C1004.222351,2207.875977 1011.107971,2235.221436 1019.301941,2262.250488 
	C1029.847168,2297.035156 1043.913818,2330.400635 1061.963379,2361.908936 
	C1072.337769,2380.018799 1083.274414,2398.017090 1095.901733,2414.584229 
	C1129.312378,2458.418457 1168.913208,2496.421387 1211.350098,2531.388672 
	C1274.158447,2583.141602 1342.410767,2626.882812 1413.432373,2666.371338 
	C1470.097046,2697.877197 1527.943359,2727.078369 1587.026123,2753.802246 
	C1666.343628,2789.678711 1745.998901,2824.651367 1829.545044,2849.922119 
	C1875.654785,2863.869385 1922.305542,2875.565918 1969.687012,2883.993896 
	C2002.288208,2889.792725 2035.165039,2894.226562 2068.047852,2898.201416 
	C2095.336914,2901.500244 2122.771973,2904.193359 2150.219971,2905.411865 
	C2180.486328,2906.755371 2210.855957,2906.756836 2241.150391,2906.052734 
	C2255.698975,2905.714600 2271.468506,2909.106445 2284.226562,2898.040283 
	C2317.793945,2885.065430 2349.347168,2868.430176 2378.511719,2847.210938 
	C2404.061523,2828.622314 2430.008301,2810.579590 2455.716553,2792.207520 
	C2457.873291,2790.666016 2461.512695,2789.788818 2460.112061,2784.936279 
	C2457.454346,2784.563721 2454.597168,2783.910400 2451.718994,2783.799072 
	C2420.519775,2782.594238 2389.314941,2781.528564 2358.116455,2780.305908 
	C2345.184082,2779.799316 2332.261230,2779.032227 2319.336670,2778.337891 
	C2294.816406,2777.020264 2270.291260,2775.781738 2245.781006,2774.297119 
	C2226.917236,2773.154541 2208.053223,2771.916504 2189.224609,2770.307861 
	C2157.854004,2767.627930 2126.454346,2765.124023 2095.175781,2761.584717 
	C2070.502441,2758.792969 2045.798340,2755.537842 2021.460205,2750.711670 
	C1990.891724,2744.649902 1960.626465,2737.006348 1930.329102,2729.639648 
	C1837.067505,2706.962402 1744.272705,2682.683838 1653.737793,2650.413086 
	C1580.967407,2624.474365 1510.120850,2594.367920 1443.062744,2555.783447 
	C1399.406128,2530.664062 1357.989990,2502.346436 1321.295288,2467.677734 
	C1288.307007,2436.510498 1259.353271,2401.778320 1233.525879,2364.479492 
	C1194.924072,2308.732910 1163.737183,2249.029541 1139.208374,2185.854980 
	C1134.913452,2174.793213 1131.679199,2163.319824 1128.456909,2151.706543 
	C1128.456909,2151.706543 1128.972656,2151.399170 1129.901001,2152.370117 
M1439.223389,2757.895020 
	C1402.911621,2739.073730 1366.395752,2720.633789 1330.334717,2701.343750 
	C1273.427734,2670.903076 1218.071411,2637.786621 1164.039917,2602.493408 
	C1122.251831,2575.197266 1081.525879,2546.397949 1041.828857,2516.107422 
	C989.157104,2475.917236 939.097107,2432.719727 891.960388,2386.220215 
	C870.900574,2365.444824 850.935608,2343.517090 831.132812,2321.519043 
	C789.232910,2274.974365 752.295654,2224.686035 719.472351,2171.349609 
	C689.986755,2123.436768 665.011902,2073.270752 644.186768,2021.043579 
	C624.969238,1972.848145 609.636658,1923.431152 598.054810,1872.833496 
	C589.167053,1834.005615 581.968750,1794.874878 577.925476,1755.266724 
	C574.694946,1723.620361 571.651611,1691.872437 570.659058,1660.102905 
	C569.642639,1627.572632 570.790161,1594.947632 571.812378,1562.389893 
	C572.530273,1539.524536 573.662537,1516.589722 576.321594,1493.886475 
	C580.751892,1456.060547 585.719238,1418.256592 591.958191,1380.692139 
	C603.782715,1309.497681 622.316895,1239.887085 644.740906,1171.341675 
	C653.200073,1145.483521 661.479187,1119.469971 674.257080,1095.239746 
	C675.787292,1092.338013 676.807190,1089.166016 678.047668,1086.112915 
	C680.505981,1080.062256 682.704529,1073.890991 685.461914,1067.980225 
	C689.845093,1058.584106 697.787048,1050.929077 699.452209,1040.236450 
	C698.223816,1038.659668 697.335938,1037.236084 696.181152,1036.079102 
	C665.347534,1005.186890 636.928589,972.267517 611.918884,936.440002 
	C587.073730,900.848145 569.997986,861.824646 559.719482,819.733948 
	C553.888062,795.854004 550.821411,771.543701 547.317200,747.243896 
	C542.576782,714.371948 543.767700,681.798340 547.525940,649.077393 
	C548.480042,640.770874 548.855835,632.398010 549.497375,624.055603 
	C548.749756,623.755310 548.002197,623.454956 547.254578,623.154602 
	C459.476990,716.924744 385.137329,820.539185 325.381805,934.272705 
	C204.401550,1164.536255 148.728516,1410.263428 158.704529,1669.973022 
	C168.001221,1911.997559 232.692261,2139.256104 357.053131,2347.260010 
	C552.180298,2673.626709 832.161438,2895.066650 1196.809937,3004.375977 
	C1491.790283,3092.801514 1786.626465,3083.484863 2078.835449,2986.740234 
	C2073.412354,2985.583252 2067.974854,2984.797363 2062.509521,2984.366211 
	C2046.991455,2983.141602 2031.514282,2982.036133 2016.520142,2977.145996 
	C2004.220825,2973.134521 1991.659302,2969.928467 1979.220215,2966.343750 
	C1898.423462,2943.061768 1818.854614,2916.068604 1740.092285,2886.700439 
	C1678.769409,2863.835449 1617.989502,2839.568604 1558.271240,2812.765869 
	C1518.863647,2795.078857 1479.814941,2776.592285 1439.223389,2757.895020 
M2222.602539,296.461823 
	C2204.981689,287.837830 2187.484375,278.949707 2169.711670,270.651123 
	C2142.332031,257.866943 2114.303955,246.563812 2085.308105,238.048630 
	C2055.387207,229.261871 2025.112183,221.689011 1995.091064,213.234024 
	C1955.453613,202.070786 1915.412720,192.623108 1874.837036,185.724030 
	C1842.840454,180.283661 1810.724854,175.305481 1778.497803,171.522583 
	C1744.950806,167.584763 1711.256836,164.350967 1677.534058,162.622208 
	C1646.744629,161.043839 1615.829468,161.612549 1584.972412,161.773438 
	C1566.377441,161.870377 1547.749146,162.453476 1529.204590,163.780869 
	C1498.137085,166.004654 1467.062256,168.430588 1436.107788,171.838150 
	C1409.117554,174.809341 1382.054810,178.064514 1355.444092,183.320755 
	C1314.465210,191.415054 1273.691162,200.697906 1233.117188,210.647293 
	C1193.107666,220.458267 1153.779297,232.860550 1115.309570,247.618927 
	C1079.355225,261.412323 1043.716431,276.053955 1008.181702,290.903778 
	C993.222778,297.155121 978.888000,304.900116 964.185364,312.006805 
	C964.809937,313.908569 964.963135,314.859253 965.404785,315.648621 
	C974.455139,331.825989 982.538147,348.651550 992.788696,364.031860 
	C1036.760376,430.008942 1085.910034,491.918427 1141.386108,548.656494 
	C1149.669922,557.128601 1159.137329,564.443176 1167.617065,571.905884 
	C1169.360474,571.291504 1169.996216,571.119995 1170.587891,570.851501 
	C1210.998779,552.511353 1250.888062,532.865479 1293.798462,520.697571 
	C1317.996216,513.835938 1342.193970,506.937134 1366.562378,500.723938 
	C1408.696167,489.981201 1451.399536,481.705780 1494.458008,476.004669 
	C1521.350708,472.444000 1548.654907,471.796204 1575.804688,470.446259 
	C1592.755981,469.603394 1609.763550,469.897400 1626.745361,469.651154 
	C1628.733276,469.622375 1630.716309,469.333344 1632.704712,469.282196 
	C1643.990112,468.991882 1655.332275,467.892670 1666.551392,468.635620 
	C1695.308105,470.539948 1724.011841,473.250153 1752.733521,475.674408 
	C1768.565063,477.010681 1784.425293,478.109314 1800.208740,479.883392 
	C1815.984375,481.656616 1831.692139,484.057312 1847.405151,486.351685 
	C1853.290039,487.210968 1859.090942,488.631012 1864.956055,489.645813 
	C1876.005127,491.557526 1887.145752,493.012390 1898.112915,495.305176 
	C1909.460083,497.677399 1920.526001,502.425903 1931.928711,503.280121 
	C1953.723145,504.912750 1973.807129,512.843750 1994.375366,518.567566 
	C2017.556396,525.018372 2039.851318,534.642761 2062.556396,542.818481 
	C2070.605469,545.716797 2078.899170,548.004456 2086.771729,551.308044 
	C2096.532227,555.403931 2105.998779,560.208252 2115.544434,564.805969 
	C2166.504395,589.351013 2215.987305,616.653198 2264.387939,645.859375 
	C2340.696777,691.905945 2415.081543,740.804565 2484.215332,797.299133 
	C2506.127197,815.204773 2525.481445,836.128235 2549.247803,851.862854 
	C2565.481445,862.610352 2579.254150,876.758362 2597.196289,885.266235 
	C2624.610596,898.265869 2652.883301,901.000305 2682.313232,894.748474 
	C2708.131836,889.263916 2729.866211,876.407166 2747.255371,856.890076 
	C2763.251953,838.935486 2772.494141,817.771301 2774.475098,793.380676 
	C2776.317627,770.701294 2767.475586,750.589172 2761.016113,729.842285 
	C2760.546143,728.332520 2759.271484,727.039001 2758.250244,725.739990 
	C2731.970703,692.315125 2706.801758,658.040955 2678.075928,626.533203 
	C2648.231934,593.799316 2617.078857,562.422302 2583.619141,533.492859 
	C2529.793945,486.955292 2473.119629,443.986267 2414.061523,404.322479 
	C2353.519287,363.661774 2290.104980,327.905609 2222.602539,296.461823 
M2858.130859,1078.861572 
	C2844.035400,1073.919800 2830.190186,1068.037964 2815.799072,1064.207031 
	C2766.406982,1051.058960 2716.801514,1038.713501 2667.322754,1025.888062 
	C2644.513672,1019.975708 2621.627686,1014.271240 2600.030518,1004.463379 
	C2591.401123,1000.544617 2583.854492,995.519165 2578.000488,987.900696 
	C2567.082520,973.691528 2556.605713,959.053528 2544.647705,945.761169 
	C2534.557861,934.545410 2524.716064,922.990234 2512.173584,913.968140 
	C2482.404541,892.554688 2449.300781,878.606079 2414.328613,868.790405 
	C2393.861084,863.045776 2372.868408,859.808655 2351.590088,858.509216 
	C2327.660645,857.047852 2304.940186,863.356140 2282.052002,868.762207 
	C2247.206543,876.992493 2213.214844,888.956299 2177.412354,892.989746 
	C2156.022217,895.399475 2134.609863,897.654480 2113.167480,899.524841 
	C2107.639404,900.007019 2101.950195,898.885193 2096.354980,898.307739 
	C2082.193359,896.846008 2067.860352,896.226990 2053.926270,893.550659 
	C2024.424561,887.884216 1997.163818,876.739197 1975.132568,855.513245 
	C1963.659546,844.459717 1953.019653,832.544922 1941.891846,821.128113 
	C1934.071777,813.105103 1926.747192,804.379578 1917.948364,797.592102 
	C1909.023560,790.707520 1902.653076,794.276978 1902.488159,805.377686 
	C1902.345703,814.977783 1903.307495,824.590271 1903.643066,834.202087 
	C1904.788452,867.011658 1910.602417,898.880554 1923.325562,929.250793 
	C1933.274536,952.998535 1947.877319,972.818909 1970.517822,986.462769 
	C1990.179199,998.311279 2011.317017,1005.560608 2033.618652,1009.620422 
	C2050.715088,1012.732605 2067.999268,1014.812744 2086.008057,1017.471252 
	C2084.547119,1020.284485 2083.407715,1022.933289 2081.885742,1025.339966 
	C2058.219238,1062.765381 2037.801147,1101.880981 2019.822266,1142.348267 
	C2012.416260,1159.018066 2003.776367,1175.165894 1995.101440,1191.229248 
	C1992.678955,1195.715088 1988.757202,1200.109009 1984.418579,1202.684692 
	C1976.755493,1207.234009 1968.456299,1210.944580 1960.049683,1213.966797 
	C1930.982788,1224.416626 1900.999634,1225.784058 1870.701782,1221.308716 
	C1826.750977,1214.816650 1786.206543,1198.643555 1747.636963,1177.078979 
	C1713.530396,1158.009766 1682.764404,1134.180298 1652.377808,1109.858887 
	C1598.890991,1067.048218 1541.023071,1031.280029 1478.791260,1002.794250 
	C1445.604004,987.603149 1411.633545,974.126221 1378.058105,959.778687 
	C1333.777222,940.856506 1288.975708,923.034424 1245.412231,902.579468 
	C1181.776855,872.699646 1122.582275,834.830078 1063.918701,796.306396 
	C1017.777100,766.005737 972.157349,734.921387 928.732056,700.724976 
	C909.437988,685.531311 889.280273,671.438599 869.857300,656.403442 
	C836.974365,630.948975 804.750366,604.677124 776.029175,574.466187 
	C759.096069,556.654846 742.545349,538.477722 725.953491,520.345398 
	C719.036011,512.785767 712.523865,504.856934 705.713318,497.197418 
	C691.834351,481.588379 677.924377,466.006409 663.923218,450.507202 
	C660.129578,446.307678 655.280518,442.920135 652.091858,438.340973 
	C640.496521,421.688934 624.074463,410.120636 609.288940,396.858429 
	C599.783630,388.332458 584.938171,393.341888 582.237915,405.843933 
	C580.779358,412.597198 579.703735,419.612640 579.806274,426.489655 
	C580.102478,446.342834 580.920288,466.077179 586.238037,485.554749 
	C592.635254,508.985931 600.076843,531.774475 612.073303,553.072632 
	C634.151489,592.269348 658.964172,629.662537 685.580566,665.855774 
	C705.269409,692.628845 726.522522,718.011780 752.429077,739.284973 
	C793.103638,772.684998 836.322693,802.492126 879.906738,831.868774 
	C904.767151,848.625305 930.630798,863.583618 958.004211,875.580688 
	C1003.017700,895.309021 1048.314697,914.422791 1093.838135,932.945618 
	C1135.362549,949.841248 1176.739380,967.456421 1219.274780,981.424072 
	C1277.913452,1000.679565 1337.521851,1017.005615 1396.831909,1034.182617 
	C1424.320923,1042.143799 1451.599243,1050.331177 1476.755859,1064.468018 
	C1495.589233,1075.051514 1514.986694,1084.635864 1533.757935,1095.323730 
	C1545.851562,1102.209473 1557.804077,1109.580811 1568.858765,1117.997070 
	C1585.235352,1130.464966 1600.794678,1144.010254 1616.637939,1157.173828 
	C1641.657837,1177.961670 1665.787476,1199.806396 1690.479614,1220.931152 
	C1739.785522,1263.113647 1797.554932,1289.956665 1860.353027,1305.584717 
	C1881.858887,1310.936646 1903.861694,1315.510132 1926.272827,1310.183105 
	C1933.643555,1308.431152 1940.896729,1306.167114 1948.168213,1304.017578 
	C1978.750122,1294.977661 2006.899292,1280.919800 2031.954712,1261.272827 
	C2060.610352,1238.802612 2082.655518,1210.436035 2099.723877,1178.540283 
	C2111.611328,1156.326416 2121.905762,1133.213379 2132.035645,1110.117676 
	C2143.952637,1082.947510 2156.399658,1056.164185 2174.874023,1032.682861 
	C2180.820557,1025.124756 2187.675537,1018.220764 2193.083008,1010.312073 
	C2202.381104,996.712769 2213.351562,984.618103 2225.844971,974.170898 
	C2264.386230,941.942261 2308.483154,928.174866 2358.954590,933.783203 
	C2380.263672,936.151001 2400.846924,940.278564 2420.731689,947.873474 
	C2443.017578,956.385498 2463.288330,968.529358 2479.989990,985.656189 
	C2504.434082,1010.722778 2518.245605,1041.240601 2523.303955,1075.735596 
	C2524.044678,1080.785889 2523.406738,1086.038086 2523.406738,1091.235718 
	C2497.306396,1092.761230 2472.471436,1094.053223 2447.661133,1095.713745 
	C2428.144043,1097.020142 2408.610107,1098.353516 2389.175537,1100.505859 
	C2378.032471,1101.739868 2366.822266,1103.781250 2356.080322,1106.946289 
	C2330.294678,1114.543579 2307.480713,1128.423584 2285.372559,1143.244751 
	C2273.316650,1151.326782 2261.394775,1160.040283 2251.068359,1170.158691 
	C2238.538818,1182.436401 2227.483643,1196.271240 2216.269775,1209.828735 
	C2183.337158,1249.643066 2157.193359,1294.126953 2129.320068,1337.403320 
	C2119.608154,1352.482300 2111.800537,1368.840942 2101.526855,1383.495850 
	C2064.376221,1436.488159 2019.272339,1481.940186 1967.106812,1520.144897 
	C1931.992920,1545.861450 1893.298950,1564.878052 1851.396484,1577.005981 
	C1817.134277,1586.922607 1781.922363,1591.530640 1746.467529,1593.435791 
	C1719.275757,1594.896973 1691.962036,1595.619507 1664.755737,1592.369019 
	C1638.766479,1589.263672 1612.680298,1586.878906 1586.768677,1583.237427 
	C1553.832153,1578.608765 1520.715942,1577.318481 1487.563965,1576.464600 
	C1478.974609,1576.243408 1470.353638,1577.897461 1461.728882,1578.283447 
	C1439.615112,1579.272827 1417.788086,1580.916748 1396.440063,1588.106323 
	C1352.813721,1602.798462 1314.237183,1624.807861 1284.518921,1660.702148 
	C1282.861572,1662.704102 1280.966064,1664.763306 1280.109253,1667.131470 
	C1275.313354,1680.388184 1276.880737,1693.646606 1279.959595,1707.328857 
	C1292.689575,1703.024658 1304.543701,1698.735229 1316.577759,1695.029907 
	C1327.667725,1691.615479 1338.790405,1687.272095 1350.183105,1686.096680 
	C1372.263306,1683.818726 1394.538452,1683.369629 1416.742676,1682.382202 
	C1427.712646,1681.894409 1438.708496,1681.604858 1449.684814,1681.763550 
	C1458.956665,1681.897461 1468.277466,1682.323364 1477.470337,1683.471069 
	C1498.514160,1686.098511 1519.503906,1689.169922 1540.495483,1692.200928 
	C1570.003052,1696.461670 1599.457520,1701.107544 1629.000732,1705.098633 
	C1651.886475,1708.190674 1674.628540,1712.419800 1697.919434,1712.315430 
	C1729.875854,1712.172363 1761.530884,1709.036621 1792.899414,1703.461060 
	C1819.341797,1698.761108 1845.792847,1693.813843 1871.300049,1684.948364 
	C1892.967773,1677.417236 1914.641479,1669.883911 1936.473389,1662.850342 
	C1960.370483,1655.151245 1982.580566,1644.014038 2003.806396,1630.843262 
	C2031.334473,1613.761841 2056.039062,1593.085449 2079.662354,1570.977539 
	C2112.076172,1540.642944 2140.399658,1506.943848 2164.779297,1469.884521 
	C2185.077393,1439.029541 2202.201172,1406.368164 2219.395508,1373.751831 
	C2240.680664,1333.375122 2263.467529,1294.086914 2294.797119,1260.305298 
	C2319.681396,1233.473755 2347.795166,1211.063232 2379.791260,1193.339478 
	C2422.073730,1169.918091 2467.846680,1158.572998 2515.487549,1153.795532 
	C2531.983398,1152.141479 2548.269531,1149.444336 2564.628418,1146.903931 
	C2592.434082,1142.585693 2620.442383,1139.489868 2648.425537,1136.430664 
	C2662.595703,1134.881592 2676.891602,1134.433105 2691.140381,1133.668213 
	C2713.337891,1132.476440 2735.535400,1130.769653 2757.747314,1130.510254 
	C2783.679443,1130.207397 2809.629883,1131.087158 2835.565918,1131.721191 
	C2851.497559,1132.110718 2867.457520,1132.493286 2883.332275,1133.777832 
	C2911.396729,1136.048706 2939.408447,1138.975586 2967.435547,1141.698242 
	C2973.584473,1142.295776 2979.705078,1143.187988 2986.510986,1144.027344 
	C2985.981934,1136.963501 2982.035156,1133.574463 2977.265625,1131.044189 
	C2972.282227,1128.400513 2967.135010,1126.039795 2961.956299,1123.793091 
	C2927.835693,1108.989258 2893.687012,1094.249634 2858.130859,1078.861572 
M728.096924,195.257797 
	C725.288879,207.833313 720.910217,220.297943 720.012817,233.008347 
	C718.350098,256.556030 719.858276,280.134094 724.889893,303.388702 
	C735.005493,350.140594 755.205811,392.578064 780.188232,432.922821 
	C814.684570,488.631836 856.932617,538.101807 902.826599,584.650208 
	C936.904846,619.214294 972.717896,651.773743 1010.562317,682.200256 
	C1044.254517,709.288452 1078.840454,735.129822 1114.551025,759.439209 
	C1159.077759,789.750183 1204.626587,818.493652 1251.917725,844.318481 
	C1280.493896,859.923523 1309.471680,874.818115 1338.564697,889.443726 
	C1361.691040,901.069885 1385.197510,911.952393 1408.700928,922.806030 
	C1413.264771,924.913696 1418.592773,925.366089 1423.568359,926.581970 
	C1424.017578,925.893616 1424.466919,925.205322 1424.916260,924.517029 
	C1422.917603,922.161560 1421.085571,919.636780 1418.892944,917.478455 
	C1406.077271,904.863770 1393.109985,892.402771 1380.318115,879.764099 
	C1344.769165,844.640686 1309.143188,809.593384 1273.807617,774.255981 
	C1238.000854,738.447388 1202.482300,702.350281 1166.882202,666.335388 
	C1149.085571,648.331482 1131.261963,630.351257 1113.673462,612.145081 
	C1081.067871,578.394226 1048.547729,544.559998 1016.141113,510.618164 
	C991.351135,484.653931 967.901062,457.539978 945.590637,429.379639 
	C916.368774,392.495728 891.206116,353.015442 869.214905,311.557648 
	C847.499695,270.620117 823.611755,231.166641 793.550598,195.822220 
	C783.485046,183.987564 771.933594,173.265640 760.138794,163.106125 
	C752.348328,156.395798 747.655151,157.662949 742.526489,166.369019 
	C737.331909,175.186935 733.113892,184.580154 728.096924,195.257797 
M1094.898804,1010.107544 
	C1089.323608,1007.951477 1083.744751,1005.804993 1078.173828,1003.637817 
	C1017.158752,979.901123 956.768799,954.648682 898.081909,925.616760 
	C858.456787,906.014404 819.335327,885.344177 780.490295,864.228760 
	C742.502441,843.579285 705.687927,820.883606 670.175537,796.162354 
	C655.711853,786.093750 641.377441,775.832825 627.183533,765.388550 
	C624.057800,763.088440 621.667114,761.825745 618.800232,764.973206 
	C619.084106,766.658020 619.465515,768.271057 619.614990,769.905396 
	C622.426819,800.665222 630.536987,829.955872 644.190002,857.658875 
	C659.305115,888.328491 681.848816,913.086121 707.925537,934.508545 
	C727.413696,950.518372 748.110229,965.069031 768.419312,980.065491 
	C820.104004,1018.230042 875.265564,1049.473877 937.609375,1067.191650 
	C983.605286,1080.263550 1029.984619,1091.699707 1076.670288,1101.839966 
	C1113.273560,1109.790283 1150.212891,1116.182007 1186.959106,1123.487549 
	C1226.736450,1131.395508 1267.050659,1135.194946 1307.406128,1137.262451 
	C1331.284912,1138.485840 1355.129150,1139.447876 1378.902832,1142.090088 
	C1416.107666,1146.225342 1453.331055,1150.194824 1490.552124,1154.183105 
	C1505.689087,1155.805176 1520.835449,1157.348877 1535.991455,1158.779297 
	C1538.159180,1158.984009 1540.406128,1158.347046 1542.616455,1158.099487 
	C1542.723511,1157.196777 1542.830688,1156.294067 1542.937744,1155.391357 
	C1538.544922,1153.413696 1534.312744,1150.879883 1529.731079,1149.556152 
	C1511.558105,1144.305908 1493.253662,1139.513794 1475.038086,1134.408081 
	C1389.962891,1110.561890 1305.472900,1084.799194 1222.008179,1055.797241 
	C1179.970215,1041.190063 1138.264282,1025.627686 1094.898804,1010.107544 
M901.253906,1716.227295 
	C926.501282,1694.631592 951.093384,1672.205566 977.152710,1651.638672 
	C1014.451599,1622.201172 1052.599609,1593.820068 1090.822510,1565.580078 
	C1112.473877,1549.583374 1135.224365,1535.079956 1157.014893,1519.263306 
	C1165.200684,1513.321655 1172.597168,1506.039062 1179.364258,1498.481934 
	C1184.165894,1493.119995 1183.683105,1484.902222 1173.895874,1481.724854 
	C1163.306763,1478.287231 1152.886841,1479.368652 1142.654419,1482.317383 
	C1096.739014,1495.549316 1051.382568,1510.448120 1006.840942,1527.835205 
	C964.882263,1544.214111 925.009766,1564.288208 888.805054,1591.340698 
	C864.553223,1609.461792 841.355225,1628.777100 819.052795,1649.267700 
	C799.398987,1667.325073 781.484253,1686.880127 764.853516,1707.674438 
	C754.429688,1720.707886 746.333069,1735.019287 741.291077,1751.024536 
	C730.969360,1783.789429 728.170532,1817.467285 730.035706,1851.495361 
	C731.050964,1870.017456 733.982056,1888.409302 739.886719,1906.202393 
	C748.663940,1932.651611 757.085266,1959.218872 765.818726,1985.682983 
	C766.768799,1988.561890 768.777527,1991.091187 771.317566,1995.595703 
	C773.285583,1986.670410 775.074341,1979.980103 776.207947,1973.180542 
	C782.322083,1936.508423 789.639526,1900.117920 800.202698,1864.422363 
	C810.116638,1830.920410 824.030640,1799.439941 847.612549,1773.184570 
	C864.721130,1754.136597 882.675964,1735.848633 901.253906,1716.227295 
M931.485168,1988.496948 
	C942.745544,1954.021851 956.789978,1920.666138 972.729065,1888.137817 
	C1001.477234,1829.468628 1035.981567,1774.350342 1076.263672,1722.890625 
	C1102.950684,1688.798340 1131.778687,1656.659546 1163.896606,1627.545776 
	C1172.500122,1619.747070 1181.292847,1612.110596 1189.353027,1603.775513 
	C1194.758667,1598.185547 1199.709961,1591.895874 1203.632568,1585.197754 
	C1208.626343,1576.670532 1203.594849,1568.458496 1193.680786,1568.746582 
	C1188.379517,1568.900635 1182.826782,1570.357910 1177.919678,1572.465698 
	C1150.282959,1584.337891 1125.234131,1600.676636 1101.092163,1618.401611 
	C1054.382690,1652.695312 1012.012390,1691.923218 972.127502,1733.817261 
	C937.018372,1770.695190 904.612061,1809.832520 878.914062,1854.002075 
	C871.265381,1867.148438 864.175720,1880.902832 859.080750,1895.181763 
	C852.518005,1913.574463 847.818665,1932.674927 843.067993,1951.658569 
	C838.980347,1967.993286 834.509705,1984.444702 832.806458,2001.110107 
	C830.619751,2022.505127 830.854492,2044.161865 830.379333,2065.713135 
	C829.997192,2083.049805 833.318420,2099.959717 837.547363,2116.672119 
	C841.968750,2134.144531 850.689575,2149.889893 857.595825,2166.377930 
	C864.170288,2182.073730 874.178345,2195.003906 885.180969,2207.416260 
	C888.235596,2210.862305 892.572510,2213.171875 896.397217,2216.060059 
	C897.481934,2214.310059 898.085022,2213.782959 898.114319,2213.225586 
	C899.333862,2190.041748 900.396362,2166.849121 901.711121,2143.671143 
	C902.705872,2126.132812 903.013123,2108.474854 905.395081,2091.112793 
	C910.141174,2056.517578 919.816528,2023.030640 931.485168,1988.496948 
M1150.803955,1250.339355 
	C1157.745972,1250.784180 1164.683472,1251.504272 1171.630981,1251.622559 
	C1192.941284,1251.985474 1214.259521,1252.479614 1235.567383,1252.250488 
	C1264.159302,1251.942993 1292.746338,1251.081299 1321.331665,1250.314941 
	C1341.258179,1249.780884 1361.187256,1249.203369 1381.099243,1248.295166 
	C1410.938721,1246.934326 1440.762939,1245.245361 1470.596436,1243.748047 
	C1475.719971,1243.490967 1480.856567,1243.492188 1486.489502,1243.362549 
	C1484.885864,1235.475708 1478.949341,1233.634521 1474.185059,1231.581909 
	C1461.462036,1226.100220 1448.560059,1220.895386 1435.396484,1216.600220 
	C1398.385132,1204.523438 1360.315552,1197.048462 1321.733032,1192.269531 
	C1300.692993,1189.663574 1279.552124,1187.881104 1258.469238,1185.611572 
	C1223.235962,1181.818604 1187.972656,1178.259888 1152.800171,1173.962036 
	C1132.103882,1171.433105 1111.154297,1169.266113 1091.018433,1164.170532 
	C1021.196411,1146.501709 951.729431,1127.434814 882.017761,1109.321899 
	C862.115906,1104.150635 841.891724,1100.162476 821.714783,1096.135742 
	C813.662354,1094.528687 809.967041,1099.677368 812.817749,1107.300537 
	C813.852722,1110.068359 814.684326,1112.921509 815.866028,1115.623291 
	C820.738098,1126.762329 822.380615,1139.410645 831.163513,1148.724365 
	C835.922729,1153.771240 840.942505,1158.579102 845.576965,1163.735474 
	C855.835938,1175.149902 867.560852,1184.767700 880.467468,1193.005981 
	C904.183899,1208.144165 929.983459,1218.501343 956.936523,1226.130371 
	C985.381042,1234.181641 1014.406738,1238.924683 1043.766113,1242.434692 
	C1078.708618,1246.612671 1113.728394,1248.970825 1150.803955,1250.339355 
M1243.059082,1383.674438 
	C1252.630737,1383.230469 1262.199463,1382.699341 1271.774780,1382.359253 
	C1297.411377,1381.448486 1322.536011,1376.962036 1347.244263,1370.518921 
	C1379.999268,1361.977417 1412.587646,1352.776978 1445.136841,1343.472046 
	C1474.246826,1335.150146 1502.545532,1324.762451 1527.777222,1307.484009 
	C1531.442261,1304.974121 1534.707397,1301.880371 1539.682617,1297.808716 
	C1534.178467,1295.215210 1530.594727,1292.488647 1526.682495,1291.882080 
	C1515.958496,1290.219604 1505.113770,1288.710571 1494.285767,1288.454590 
	C1451.714966,1287.448730 1409.188599,1289.111084 1366.696289,1291.676880 
	C1352.452515,1292.536987 1338.199707,1293.300415 1323.974976,1294.413696 
	C1303.502075,1296.015991 1283.074585,1298.927612 1262.584351,1299.401978 
	C1236.368530,1300.008545 1210.109009,1298.767334 1183.869141,1298.277588 
	C1176.885254,1298.147339 1169.895752,1298.002319 1162.923584,1297.605713 
	C1145.051025,1296.589355 1127.193237,1295.301880 1109.317261,1294.360107 
	C1091.411621,1293.416504 1073.493408,1292.695801 1055.576050,1291.995361 
	C1036.332153,1291.243042 1017.083679,1290.599731 997.834412,1289.998657 
	C996.036133,1289.942505 994.217712,1290.531860 992.262207,1290.844971 
	C994.179138,1295.998413 994.160095,1296.029907 997.268555,1297.907837 
	C1037.685669,1322.323975 1078.915161,1344.897583 1123.893677,1360.265259 
	C1162.031006,1373.295654 1200.493408,1383.559204 1243.059082,1383.674438 
M2455.365234,1025.654175 
	C2455.473877,1023.012146 2455.867188,1020.345398 2455.640625,1017.732422 
	C2454.748047,1007.444519 2449.002441,1000.547913 2439.576172,997.111206 
	C2430.535400,993.815002 2421.776855,995.145020 2414.681885,1001.959778 
	C2407.551270,1008.808716 2404.296387,1017.062073 2407.599609,1027.085693 
	C2411.147705,1037.851807 2418.676270,1043.979370 2429.149414,1044.354248 
	C2442.834473,1044.843994 2449.360107,1040.428467 2455.365234,1025.654175 
z"/>
<path fill="#E8EBEA" opacity="1.000000" stroke="none" 
	d="
M1439.914429,2758.179199 
	C1479.814941,2776.592285 1518.863647,2795.078857 1558.271240,2812.765869 
	C1617.989502,2839.568604 1678.769409,2863.835449 1740.092285,2886.700439 
	C1818.854614,2916.068604 1898.423462,2943.061768 1979.220215,2966.343750 
	C1991.659302,2969.928467 2004.220825,2973.134521 2016.520142,2977.145996 
	C2031.514282,2982.036133 2046.991455,2983.141602 2062.509521,2984.366211 
	C2067.974854,2984.797363 2073.412354,2985.583252 2078.835449,2986.740234 
	C1786.626465,3083.484863 1491.790283,3092.801514 1196.809937,3004.375977 
	C832.161438,2895.066650 552.180298,2673.626709 357.053131,2347.260010 
	C232.692261,2139.256104 168.001221,1911.997559 158.704529,1669.973022 
	C148.728516,1410.263428 204.401550,1164.536255 325.381805,934.272705 
	C385.137329,820.539185 459.476990,716.924744 547.254578,623.154602 
	C548.002197,623.454956 548.749756,623.755310 549.497375,624.055603 
	C548.855835,632.398010 548.480042,640.770874 547.525940,649.077393 
	C543.767700,681.798340 542.576782,714.371948 547.317200,747.243896 
	C550.821411,771.543701 553.888062,795.854004 559.719482,819.733948 
	C569.997986,861.824646 587.073730,900.848145 611.918884,936.440002 
	C636.928589,972.267517 665.347534,1005.186890 696.181152,1036.079102 
	C697.335938,1037.236084 698.223816,1038.659668 699.452209,1040.236450 
	C697.787048,1050.929077 689.845093,1058.584106 685.461914,1067.980225 
	C682.704529,1073.890991 680.505981,1080.062256 678.047668,1086.112915 
	C676.807190,1089.166016 675.787292,1092.338013 674.257080,1095.239746 
	C661.479187,1119.469971 653.200073,1145.483521 644.740906,1171.341675 
	C622.316895,1239.887085 603.782715,1309.497681 591.958191,1380.692139 
	C585.719238,1418.256592 580.751892,1456.060547 576.321594,1493.886475 
	C573.662537,1516.589722 572.530273,1539.524536 571.812378,1562.389893 
	C570.790161,1594.947632 569.642639,1627.572632 570.659058,1660.102905 
	C571.651611,1691.872437 574.694946,1723.620361 577.925476,1755.266724 
	C581.968750,1794.874878 589.167053,1834.005615 598.054810,1872.833496 
	C609.636658,1923.431152 624.969238,1972.848145 644.186768,2021.043579 
	C665.011902,2073.270752 689.986755,2123.436768 719.472351,2171.349609 
	C752.295654,2224.686035 789.232910,2274.974365 831.132812,2321.519043 
	C850.935608,2343.517090 870.900574,2365.444824 891.960388,2386.220215 
	C939.097107,2432.719727 989.157104,2475.917236 1041.828857,2516.107422 
	C1081.525879,2546.397949 1122.251831,2575.197266 1164.039917,2602.493408 
	C1218.071411,2637.786621 1273.427734,2670.903076 1330.334717,2701.343750 
	C1366.395752,2720.633789 1402.911621,2739.073730 1439.914429,2758.179199 
z"/>
<path fill="#E7EAE9" opacity="1.000000" stroke="none" 
	d="
M1127.955078,2152.036377 
	C1131.679199,2163.319824 1134.913452,2174.793213 1139.208374,2185.854980 
	C1163.737183,2249.029541 1194.924072,2308.732910 1233.525879,2364.479492 
	C1259.353271,2401.778320 1288.307007,2436.510498 1321.295288,2467.677734 
	C1357.989990,2502.346436 1399.406128,2530.664062 1443.062744,2555.783447 
	C1510.120850,2594.367920 1580.967407,2624.474365 1653.737793,2650.413086 
	C1744.272705,2682.683838 1837.067505,2706.962402 1930.329102,2729.639648 
	C1960.626465,2737.006348 1990.891724,2744.649902 2021.460205,2750.711670 
	C2045.798340,2755.537842 2070.502441,2758.792969 2095.175781,2761.584717 
	C2126.454346,2765.124023 2157.854004,2767.627930 2189.224609,2770.307861 
	C2208.053223,2771.916504 2226.917236,2773.154541 2245.781006,2774.297119 
	C2270.291260,2775.781738 2294.816406,2777.020264 2319.336670,2778.337891 
	C2332.261230,2779.032227 2345.184082,2779.799316 2358.116455,2780.305908 
	C2389.314941,2781.528564 2420.519775,2782.594238 2451.718994,2783.799072 
	C2454.597168,2783.910400 2457.454346,2784.563721 2460.112061,2784.936279 
	C2461.512695,2789.788818 2457.873291,2790.666016 2455.716553,2792.207520 
	C2430.008301,2810.579590 2404.061523,2828.622314 2378.511719,2847.210938 
	C2349.347168,2868.430176 2317.793945,2885.065430 2284.226562,2898.040283 
	C2271.468506,2909.106445 2255.698975,2905.714600 2241.150391,2906.052734 
	C2210.855957,2906.756836 2180.486328,2906.755371 2150.219971,2905.411865 
	C2122.771973,2904.193359 2095.336914,2901.500244 2068.047852,2898.201416 
	C2035.165039,2894.226562 2002.288208,2889.792725 1969.687012,2883.993896 
	C1922.305542,2875.565918 1875.654785,2863.869385 1829.545044,2849.922119 
	C1745.998901,2824.651367 1666.343628,2789.678711 1587.026123,2753.802246 
	C1527.943359,2727.078369 1470.097046,2697.877197 1413.432373,2666.371338 
	C1342.410767,2626.882812 1274.158447,2583.141602 1211.350098,2531.388672 
	C1168.913208,2496.421387 1129.312378,2458.418457 1095.901733,2414.584229 
	C1083.274414,2398.017090 1072.337769,2380.018799 1061.963379,2361.908936 
	C1043.913818,2330.400635 1029.847168,2297.035156 1019.301941,2262.250488 
	C1011.107971,2235.221436 1004.222351,2207.875977 1001.907532,2179.628418 
	C1000.201233,2158.806396 998.700195,2137.953857 997.761597,2117.085693 
	C996.850586,2096.830078 996.348694,2076.535645 996.412537,2056.260498 
	C996.577881,2003.781494 1003.582886,1952.338623 1020.874390,1902.546997 
	C1031.715332,1871.330322 1042.208862,1839.890259 1058.810791,1811.172119 
	C1075.444214,1782.399292 1092.812988,1754.019043 1110.787476,1726.063477 
	C1126.057495,1702.314209 1143.599121,1680.128418 1162.642944,1659.249756 
	C1172.937134,1647.963623 1184.077759,1637.429565 1197.715942,1630.110840 
	C1211.717163,1622.597656 1229.620483,1632.845947 1232.195801,1648.532227 
	C1234.500366,1662.569946 1238.466675,1676.349609 1241.985107,1690.170532 
	C1253.704712,1736.207031 1266.837891,1781.826050 1282.072388,1826.841675 
	C1295.890381,1867.671631 1316.832642,1903.998169 1345.622437,1936.371582 
	C1377.029663,1971.688354 1407.673462,2007.698364 1441.937012,2040.295898 
	C1492.421509,2088.325439 1545.749268,2132.738525 1606.659302,2167.391602 
	C1645.102417,2189.262451 1686.274536,2203.788330 1728.625854,2215.709473 
	C1782.666138,2230.921143 1837.277588,2243.473877 1892.853027,2251.408691 
	C1915.472534,2254.637695 1938.354614,2256.005615 1961.102905,2258.360352 
	C1992.235840,2261.582764 2023.464478,2261.563477 2054.713379,2261.758545 
	C2094.288574,2262.005859 2133.732422,2259.733398 2173.090820,2256.156250 
	C2226.234619,2251.325928 2279.064209,2244.076416 2331.629395,2234.722900 
	C2370.516113,2227.803467 2409.286133,2220.502197 2447.538818,2210.594727 
	C2517.756104,2192.408691 2586.135742,2168.791992 2653.168213,2141.183594 
	C2704.527832,2120.030273 2754.861328,2096.619873 2804.173828,2071.093994 
	C2873.611816,2035.150513 2941.419922,1996.372437 3006.210938,1952.480835 
	C3011.620117,1948.816650 3017.324219,1945.676880 3025.548584,1944.600342 
	C3022.885742,1953.607666 3020.632080,1961.445923 3018.252930,1969.246094 
	C2998.387207,2034.379028 2978.468262,2099.497559 2954.587891,2163.311035 
	C2941.395752,2198.563232 2924.912842,2232.283691 2906.677246,2265.176025 
	C2895.717285,2284.944336 2884.883545,2304.782227 2873.951904,2324.566406 
	C2872.668945,2326.887939 2871.125977,2329.065674 2869.882080,2331.028320 
	C2866.008545,2331.831299 2862.364746,2332.203857 2858.980225,2333.345215 
	C2791.927002,2355.955566 2724.286133,2376.653320 2655.388672,2392.823975 
	C2618.297363,2401.529541 2580.849854,2408.948486 2543.291992,2415.359375 
	C2516.178711,2419.987305 2488.658203,2421.941162 2460.999756,2421.781982 
	C2398.335693,2421.420898 2335.666992,2421.862061 2273.002197,2421.576904 
	C2246.406738,2421.456055 2219.805908,2420.599609 2193.226318,2419.584717 
	C2167.693359,2418.609619 2142.148682,2417.480225 2116.673340,2415.564697 
	C2064.147217,2411.614746 2011.650635,2407.419922 1959.369019,2400.624512 
	C1915.949585,2394.981689 1872.712036,2388.385254 1829.798706,2379.797363 
	C1785.515747,2370.935791 1741.733521,2360.013672 1698.564697,2346.629150 
	C1656.916870,2333.715820 1616.167114,2318.489502 1577.111328,2299.116699 
	C1540.411255,2280.912354 1505.525146,2259.566162 1472.363037,2235.444824 
	C1438.975952,2211.159424 1407.533691,2184.617432 1377.529663,2156.234131 
	C1328.801758,2110.139160 1285.372925,2059.496094 1245.664673,2005.557983 
	C1221.384033,1972.576294 1198.871582,1938.429688 1178.445557,1902.921021 
	C1176.646118,1899.792725 1174.984741,1896.584961 1172.207031,1891.480591 
	C1170.750488,1902.298462 1168.523071,1911.201782 1168.568237,1920.093506 
	C1168.662354,1938.676025 1168.655762,1957.420044 1171.023315,1975.797119 
	C1176.126709,2015.409546 1189.346436,2052.524170 1209.385254,2087.146484 
	C1221.743530,2108.498535 1236.463501,2128.162598 1251.721436,2147.501953 
	C1272.954102,2174.414795 1295.194092,2200.479004 1319.427856,2224.665771 
	C1361.076904,2266.233887 1407.659790,2301.489502 1459.283081,2329.904053 
	C1523.495728,2365.247559 1590.758911,2393.731201 1659.596802,2418.637939 
	C1719.978638,2440.485596 1781.947754,2456.607666 1844.744629,2469.705322 
	C1899.940918,2481.217529 1955.499146,2490.634766 2011.348511,2498.356934 
	C2048.096680,2503.437744 2084.795898,2508.905762 2121.602539,2513.515625 
	C2144.943359,2516.439209 2168.427490,2518.266846 2191.872803,2520.291016 
	C2215.975830,2522.372314 2240.097168,2524.289307 2264.235352,2525.906494 
	C2281.130127,2527.038330 2298.061768,2527.677979 2314.985840,2528.298584 
	C2336.906982,2529.102783 2358.836182,2529.689209 2380.762939,2530.331299 
	C2397.038330,2530.807861 2413.313232,2531.389648 2429.592529,2531.628906 
	C2454.539307,2531.995850 2479.489746,2532.262207 2504.438477,2532.281250 
	C2524.754395,2532.296631 2545.074463,2532.057373 2565.385986,2531.619629 
	C2586.649902,2531.161865 2607.914062,2530.523438 2629.163330,2529.616211 
	C2655.691162,2528.483398 2682.207764,2527.067871 2708.720947,2525.624756 
	C2718.512939,2525.092041 2728.282227,2524.135498 2738.061768,2523.372070 
	C2738.377441,2524.022461 2738.692871,2524.672852 2739.008301,2525.323242 
	C2736.738525,2528.320312 2734.517822,2531.356201 2732.191650,2534.308594 
	C2698.746582,2576.752197 2660.992188,2615.208984 2622.551514,2653.045166 
	C2617.942139,2657.582031 2611.355469,2660.408936 2609.519043,2667.666260 
	C2609.231445,2668.802490 2606.229004,2669.532959 2604.369873,2669.948730 
	C2571.663574,2677.261719 2538.691406,2683.118896 2505.317627,2686.238770 
	C2478.916260,2688.706787 2452.421143,2690.152344 2425.995117,2692.381348 
	C2387.801758,2695.603271 2349.541992,2694.716064 2311.361572,2693.388672 
	C2281.571045,2692.352783 2251.829834,2689.198486 2222.136475,2686.276611 
	C2190.814209,2683.194580 2159.480713,2679.938965 2128.321777,2675.553711 
	C2085.339844,2669.503906 2042.294678,2663.483887 1999.684814,2655.320068 
	C1951.809204,2646.147949 1904.142578,2635.593018 1856.828857,2623.851318 
	C1791.378662,2607.608154 1727.168701,2587.056152 1664.419922,2562.265869 
	C1630.143677,2548.724609 1595.925537,2534.906250 1562.391846,2519.650391 
	C1524.571533,2502.444580 1488.325439,2482.087158 1453.256470,2459.711182 
	C1399.634888,2425.497803 1349.023438,2387.171875 1299.131226,2347.807617 
	C1254.245239,2312.393311 1214.545776,2271.959473 1179.387573,2226.960449 
	C1160.959961,2203.374756 1144.446289,2178.527344 1129.226074,2151.372070 
	C1127.904419,2149.979492 1127.257812,2149.585205 1126.611328,2149.190674 
	C1127.059204,2150.139160 1127.507202,2151.087891 1127.955078,2152.036377 
z"/>
<path fill="#E7EAE9" opacity="1.000000" stroke="none" 
	d="
M2223.243164,296.847290 
	C2290.104980,327.905609 2353.519287,363.661774 2414.061523,404.322479 
	C2473.119629,443.986267 2529.793945,486.955292 2583.619141,533.492859 
	C2617.078857,562.422302 2648.231934,593.799316 2678.075928,626.533203 
	C2706.801758,658.040955 2731.970703,692.315125 2758.250244,725.739990 
	C2759.271484,727.039001 2760.546143,728.332520 2761.016113,729.842285 
	C2767.475586,750.589172 2776.317627,770.701294 2774.475098,793.380676 
	C2772.494141,817.771301 2763.251953,838.935486 2747.255371,856.890076 
	C2729.866211,876.407166 2708.131836,889.263916 2682.313232,894.748474 
	C2652.883301,901.000305 2624.610596,898.265869 2597.196289,885.266235 
	C2579.254150,876.758362 2565.481445,862.610352 2549.247803,851.862854 
	C2525.481445,836.128235 2506.127197,815.204773 2484.215332,797.299133 
	C2415.081543,740.804565 2340.696777,691.905945 2264.387939,645.859375 
	C2215.987305,616.653198 2166.504395,589.351013 2115.544434,564.805969 
	C2105.998779,560.208252 2096.532227,555.403931 2086.771729,551.308044 
	C2078.899170,548.004456 2070.605469,545.716797 2062.556396,542.818481 
	C2039.851318,534.642761 2017.556396,525.018372 1994.375366,518.567566 
	C1973.807129,512.843750 1953.723145,504.912750 1931.928711,503.280121 
	C1920.526001,502.425903 1909.460083,497.677399 1898.112915,495.305176 
	C1887.145752,493.012390 1876.005127,491.557526 1864.956055,489.645813 
	C1859.090942,488.631012 1853.290039,487.210968 1847.405151,486.351685 
	C1831.692139,484.057312 1815.984375,481.656616 1800.208740,479.883392 
	C1784.425293,478.109314 1768.565063,477.010681 1752.733521,475.674408 
	C1724.011841,473.250153 1695.308105,470.539948 1666.551392,468.635620 
	C1655.332275,467.892670 1643.990112,468.991882 1632.704712,469.282196 
	C1630.716309,469.333344 1628.733276,469.622375 1626.745361,469.651154 
	C1609.763550,469.897400 1592.755981,469.603394 1575.804688,470.446259 
	C1548.654907,471.796204 1521.350708,472.444000 1494.458008,476.004669 
	C1451.399536,481.705780 1408.696167,489.981201 1366.562378,500.723938 
	C1342.193970,506.937134 1317.996216,513.835938 1293.798462,520.697571 
	C1250.888062,532.865479 1210.998779,552.511353 1170.587891,570.851501 
	C1169.996216,571.119995 1169.360474,571.291504 1167.617065,571.905884 
	C1159.137329,564.443176 1149.669922,557.128601 1141.386108,548.656494 
	C1085.910034,491.918427 1036.760376,430.008942 992.788696,364.031860 
	C982.538147,348.651550 974.455139,331.825989 965.404785,315.648621 
	C964.963135,314.859253 964.809937,313.908569 964.185364,312.006805 
	C978.888000,304.900116 993.222778,297.155121 1008.181702,290.903778 
	C1043.716431,276.053955 1079.355225,261.412323 1115.309570,247.618927 
	C1153.779297,232.860550 1193.107666,220.458267 1233.117188,210.647293 
	C1273.691162,200.697906 1314.465210,191.415054 1355.444092,183.320755 
	C1382.054810,178.064514 1409.117554,174.809341 1436.107788,171.838150 
	C1467.062256,168.430588 1498.137085,166.004654 1529.204590,163.780869 
	C1547.749146,162.453476 1566.377441,161.870377 1584.972412,161.773438 
	C1615.829468,161.612549 1646.744629,161.043839 1677.534058,162.622208 
	C1711.256836,164.350967 1744.950806,167.584763 1778.497803,171.522583 
	C1810.724854,175.305481 1842.840454,180.283661 1874.837036,185.724030 
	C1915.412720,192.623108 1955.453613,202.070786 1995.091064,213.234024 
	C2025.112183,221.689011 2055.387207,229.261871 2085.308105,238.048630 
	C2114.303955,246.563812 2142.332031,257.866943 2169.711670,270.651123 
	C2187.484375,278.949707 2204.981689,287.837830 2223.243164,296.847290 
z"/>
<path fill="#E7EAE9" opacity="1.000000" stroke="none" 
	d="
M2858.839355,1079.175293 
	C2893.687012,1094.249634 2927.835693,1108.989258 2961.956299,1123.793091 
	C2967.135010,1126.039795 2972.282227,1128.400513 2977.265625,1131.044189 
	C2982.035156,1133.574463 2985.981934,1136.963501 2986.510986,1144.027344 
	C2979.705078,1143.187988 2973.584473,1142.295776 2967.435547,1141.698242 
	C2939.408447,1138.975586 2911.396729,1136.048706 2883.332275,1133.777832 
	C2867.457520,1132.493286 2851.497559,1132.110718 2835.565918,1131.721191 
	C2809.629883,1131.087158 2783.679443,1130.207397 2757.747314,1130.510254 
	C2735.535400,1130.769653 2713.337891,1132.476440 2691.140381,1133.668213 
	C2676.891602,1134.433105 2662.595703,1134.881592 2648.425537,1136.430664 
	C2620.442383,1139.489868 2592.434082,1142.585693 2564.628418,1146.903931 
	C2548.269531,1149.444336 2531.983398,1152.141479 2515.487549,1153.795532 
	C2467.846680,1158.572998 2422.073730,1169.918091 2379.791260,1193.339478 
	C2347.795166,1211.063232 2319.681396,1233.473755 2294.797119,1260.305298 
	C2263.467529,1294.086914 2240.680664,1333.375122 2219.395508,1373.751831 
	C2202.201172,1406.368164 2185.077393,1439.029541 2164.779297,1469.884521 
	C2140.399658,1506.943848 2112.076172,1540.642944 2079.662354,1570.977539 
	C2056.039062,1593.085449 2031.334473,1613.761841 2003.806396,1630.843262 
	C1982.580566,1644.014038 1960.370483,1655.151245 1936.473389,1662.850342 
	C1914.641479,1669.883911 1892.967773,1677.417236 1871.300049,1684.948364 
	C1845.792847,1693.813843 1819.341797,1698.761108 1792.899414,1703.461060 
	C1761.530884,1709.036621 1729.875854,1712.172363 1697.919434,1712.315430 
	C1674.628540,1712.419800 1651.886475,1708.190674 1629.000732,1705.098633 
	C1599.457520,1701.107544 1570.003052,1696.461670 1540.495483,1692.200928 
	C1519.503906,1689.169922 1498.514160,1686.098511 1477.470337,1683.471069 
	C1468.277466,1682.323364 1458.956665,1681.897461 1449.684814,1681.763550 
	C1438.708496,1681.604858 1427.712646,1681.894409 1416.742676,1682.382202 
	C1394.538452,1683.369629 1372.263306,1683.818726 1350.183105,1686.096680 
	C1338.790405,1687.272095 1327.667725,1691.615479 1316.577759,1695.029907 
	C1304.543701,1698.735229 1292.689575,1703.024658 1279.959595,1707.328857 
	C1276.880737,1693.646606 1275.313354,1680.388184 1280.109253,1667.131470 
	C1280.966064,1664.763306 1282.861572,1662.704102 1284.518921,1660.702148 
	C1314.237183,1624.807861 1352.813721,1602.798462 1396.440063,1588.106323 
	C1417.788086,1580.916748 1439.615112,1579.272827 1461.728882,1578.283447 
	C1470.353638,1577.897461 1478.974609,1576.243408 1487.563965,1576.464600 
	C1520.715942,1577.318481 1553.832153,1578.608765 1586.768677,1583.237427 
	C1612.680298,1586.878906 1638.766479,1589.263672 1664.755737,1592.369019 
	C1691.962036,1595.619507 1719.275757,1594.896973 1746.467529,1593.435791 
	C1781.922363,1591.530640 1817.134277,1586.922607 1851.396484,1577.005981 
	C1893.298950,1564.878052 1931.992920,1545.861450 1967.106812,1520.144897 
	C2019.272339,1481.940186 2064.376221,1436.488159 2101.526855,1383.495850 
	C2111.800537,1368.840942 2119.608154,1352.482300 2129.320068,1337.403320 
	C2157.193359,1294.126953 2183.337158,1249.643066 2216.269775,1209.828735 
	C2227.483643,1196.271240 2238.538818,1182.436401 2251.068359,1170.158691 
	C2261.394775,1160.040283 2273.316650,1151.326782 2285.372559,1143.244751 
	C2307.480713,1128.423584 2330.294678,1114.543579 2356.080322,1106.946289 
	C2366.822266,1103.781250 2378.032471,1101.739868 2389.175537,1100.505859 
	C2408.610107,1098.353516 2428.144043,1097.020142 2447.661133,1095.713745 
	C2472.471436,1094.053223 2497.306396,1092.761230 2523.406738,1091.235718 
	C2523.406738,1086.038086 2524.044678,1080.785889 2523.303955,1075.735596 
	C2518.245605,1041.240601 2504.434082,1010.722778 2479.989990,985.656189 
	C2463.288330,968.529358 2443.017578,956.385498 2420.731689,947.873474 
	C2400.846924,940.278564 2380.263672,936.151001 2358.954590,933.783203 
	C2308.483154,928.174866 2264.386230,941.942261 2225.844971,974.170898 
	C2213.351562,984.618103 2202.381104,996.712769 2193.083008,1010.312073 
	C2187.675537,1018.220764 2180.820557,1025.124756 2174.874023,1032.682861 
	C2156.399658,1056.164185 2143.952637,1082.947510 2132.035645,1110.117676 
	C2121.905762,1133.213379 2111.611328,1156.326416 2099.723877,1178.540283 
	C2082.655518,1210.436035 2060.610352,1238.802612 2031.954712,1261.272827 
	C2006.899292,1280.919800 1978.750122,1294.977661 1948.168213,1304.017578 
	C1940.896729,1306.167114 1933.643555,1308.431152 1926.272827,1310.183105 
	C1903.861694,1315.510132 1881.858887,1310.936646 1860.353027,1305.584717 
	C1797.554932,1289.956665 1739.785522,1263.113647 1690.479614,1220.931152 
	C1665.787476,1199.806396 1641.657837,1177.961670 1616.637939,1157.173828 
	C1600.794678,1144.010254 1585.235352,1130.464966 1568.858765,1117.997070 
	C1557.804077,1109.580811 1545.851562,1102.209473 1533.757935,1095.323730 
	C1514.986694,1084.635864 1495.589233,1075.051514 1476.755859,1064.468018 
	C1451.599243,1050.331177 1424.320923,1042.143799 1396.831909,1034.182617 
	C1337.521851,1017.005615 1277.913452,1000.679565 1219.274780,981.424072 
	C1176.739380,967.456421 1135.362549,949.841248 1093.838135,932.945618 
	C1048.314697,914.422791 1003.017700,895.309021 958.004211,875.580688 
	C930.630798,863.583618 904.767151,848.625305 879.906738,831.868774 
	C836.322693,802.492126 793.103638,772.684998 752.429077,739.284973 
	C726.522522,718.011780 705.269409,692.628845 685.580566,665.855774 
	C658.964172,629.662537 634.151489,592.269348 612.073303,553.072632 
	C600.076843,531.774475 592.635254,508.985931 586.238037,485.554749 
	C580.920288,466.077179 580.102478,446.342834 579.806274,426.489655 
	C579.703735,419.612640 580.779358,412.597198 582.237915,405.843933 
	C584.938171,393.341888 599.783630,388.332458 609.288940,396.858429 
	C624.074463,410.120636 640.496521,421.688934 652.091858,438.340973 
	C655.280518,442.920135 660.129578,446.307678 663.923218,450.507202 
	C677.924377,466.006409 691.834351,481.588379 705.713318,497.197418 
	C712.523865,504.856934 719.036011,512.785767 725.953491,520.345398 
	C742.545349,538.477722 759.096069,556.654846 776.029175,574.466187 
	C804.750366,604.677124 836.974365,630.948975 869.857300,656.403442 
	C889.280273,671.438599 909.437988,685.531311 928.732056,700.724976 
	C972.157349,734.921387 1017.777100,766.005737 1063.918701,796.306396 
	C1122.582275,834.830078 1181.776855,872.699646 1245.412231,902.579468 
	C1288.975708,923.034424 1333.777222,940.856506 1378.058105,959.778687 
	C1411.633545,974.126221 1445.604004,987.603149 1478.791260,1002.794250 
	C1541.023071,1031.280029 1598.890991,1067.048218 1652.377808,1109.858887 
	C1682.764404,1134.180298 1713.530396,1158.009766 1747.636963,1177.078979 
	C1786.206543,1198.643555 1826.750977,1214.816650 1870.701782,1221.308716 
	C1900.999634,1225.784058 1930.982788,1224.416626 1960.049683,1213.966797 
	C1968.456299,1210.944580 1976.755493,1207.234009 1984.418579,1202.684692 
	C1988.757202,1200.109009 1992.678955,1195.715088 1995.101440,1191.229248 
	C2003.776367,1175.165894 2012.416260,1159.018066 2019.822266,1142.348267 
	C2037.801147,1101.880981 2058.219238,1062.765381 2081.885742,1025.339966 
	C2083.407715,1022.933289 2084.547119,1020.284485 2086.008057,1017.471252 
	C2067.999268,1014.812744 2050.715088,1012.732605 2033.618652,1009.620422 
	C2011.317017,1005.560608 1990.179199,998.311279 1970.517822,986.462769 
	C1947.877319,972.818909 1933.274536,952.998535 1923.325562,929.250793 
	C1910.602417,898.880554 1904.788452,867.011658 1903.643066,834.202087 
	C1903.307495,824.590271 1902.345703,814.977783 1902.488159,805.377686 
	C1902.653076,794.276978 1909.023560,790.707520 1917.948364,797.592102 
	C1926.747192,804.379578 1934.071777,813.105103 1941.891846,821.128113 
	C1953.019653,832.544922 1963.659546,844.459717 1975.132568,855.513245 
	C1997.163818,876.739197 2024.424561,887.884216 2053.926270,893.550659 
	C2067.860352,896.226990 2082.193359,896.846008 2096.354980,898.307739 
	C2101.950195,898.885193 2107.639404,900.007019 2113.167480,899.524841 
	C2134.609863,897.654480 2156.022217,895.399475 2177.412354,892.989746 
	C2213.214844,888.956299 2247.206543,876.992493 2282.052002,868.762207 
	C2304.940186,863.356140 2327.660645,857.047852 2351.590088,858.509216 
	C2372.868408,859.808655 2393.861084,863.045776 2414.328613,868.790405 
	C2449.300781,878.606079 2482.404541,892.554688 2512.173584,913.968140 
	C2524.716064,922.990234 2534.557861,934.545410 2544.647705,945.761169 
	C2556.605713,959.053528 2567.082520,973.691528 2578.000488,987.900696 
	C2583.854492,995.519165 2591.401123,1000.544617 2600.030518,1004.463379 
	C2621.627686,1014.271240 2644.513672,1019.975708 2667.322754,1025.888062 
	C2716.801514,1038.713501 2766.406982,1051.058960 2815.799072,1064.207031 
	C2830.190186,1068.037964 2844.035400,1073.919800 2858.839355,1079.175293 
z"/>
<path fill="#E7EAE9" opacity="1.000000" stroke="none" 
	d="
M728.282532,194.489594 
	C733.113892,184.580154 737.331909,175.186935 742.526489,166.369019 
	C747.655151,157.662949 752.348328,156.395798 760.138794,163.106125 
	C771.933594,173.265640 783.485046,183.987564 793.550598,195.822220 
	C823.611755,231.166641 847.499695,270.620117 869.214905,311.557648 
	C891.206116,353.015442 916.368774,392.495728 945.590637,429.379639 
	C967.901062,457.539978 991.351135,484.653931 1016.141113,510.618164 
	C1048.547729,544.559998 1081.067871,578.394226 1113.673462,612.145081 
	C1131.261963,630.351257 1149.085571,648.331482 1166.882202,666.335388 
	C1202.482300,702.350281 1238.000854,738.447388 1273.807617,774.255981 
	C1309.143188,809.593384 1344.769165,844.640686 1380.318115,879.764099 
	C1393.109985,892.402771 1406.077271,904.863770 1418.892944,917.478455 
	C1421.085571,919.636780 1422.917603,922.161560 1424.916260,924.517029 
	C1424.466919,925.205322 1424.017578,925.893616 1423.568359,926.581970 
	C1418.592773,925.366089 1413.264771,924.913696 1408.700928,922.806030 
	C1385.197510,911.952393 1361.691040,901.069885 1338.564697,889.443726 
	C1309.471680,874.818115 1280.493896,859.923523 1251.917725,844.318481 
	C1204.626587,818.493652 1159.077759,789.750183 1114.551025,759.439209 
	C1078.840454,735.129822 1044.254517,709.288452 1010.562317,682.200256 
	C972.717896,651.773743 936.904846,619.214294 902.826599,584.650208 
	C856.932617,538.101807 814.684570,488.631836 780.188232,432.922821 
	C755.205811,392.578064 735.005493,350.140594 724.889893,303.388702 
	C719.858276,280.134094 718.350098,256.556030 720.012817,233.008347 
	C720.910217,220.297943 725.288879,207.833313 728.282532,194.489594 
z"/>
<path fill="#E6E9E8" opacity="1.000000" stroke="none" 
	d="
M1095.653564,1010.302368 
	C1138.264282,1025.627686 1179.970215,1041.190063 1222.008179,1055.797241 
	C1305.472900,1084.799194 1389.962891,1110.561890 1475.038086,1134.408081 
	C1493.253662,1139.513794 1511.558105,1144.305908 1529.731079,1149.556152 
	C1534.312744,1150.879883 1538.544922,1153.413696 1542.937744,1155.391357 
	C1542.830688,1156.294067 1542.723511,1157.196777 1542.616455,1158.099487 
	C1540.406128,1158.347046 1538.159180,1158.984009 1535.991455,1158.779297 
	C1520.835449,1157.348877 1505.689087,1155.805176 1490.552124,1154.183105 
	C1453.331055,1150.194824 1416.107666,1146.225342 1378.902832,1142.090088 
	C1355.129150,1139.447876 1331.284912,1138.485840 1307.406128,1137.262451 
	C1267.050659,1135.194946 1226.736450,1131.395508 1186.959106,1123.487549 
	C1150.212891,1116.182007 1113.273560,1109.790283 1076.670288,1101.839966 
	C1029.984619,1091.699707 983.605286,1080.263550 937.609375,1067.191650 
	C875.265564,1049.473877 820.104004,1018.230042 768.419312,980.065491 
	C748.110229,965.069031 727.413696,950.518372 707.925537,934.508545 
	C681.848816,913.086121 659.305115,888.328491 644.190002,857.658875 
	C630.536987,829.955872 622.426819,800.665222 619.614990,769.905396 
	C619.465515,768.271057 619.084106,766.658020 618.800232,764.973206 
	C621.667114,761.825745 624.057800,763.088440 627.183533,765.388550 
	C641.377441,775.832825 655.711853,786.093750 670.175537,796.162354 
	C705.687927,820.883606 742.502441,843.579285 780.490295,864.228760 
	C819.335327,885.344177 858.456787,906.014404 898.081909,925.616760 
	C956.768799,954.648682 1017.158752,979.901123 1078.173828,1003.637817 
	C1083.744751,1005.804993 1089.323608,1007.951477 1095.653564,1010.302368 
z"/>
<path fill="#E6E9E8" opacity="1.000000" stroke="none" 
	d="
M900.753662,1716.724609 
	C882.675964,1735.848633 864.721130,1754.136597 847.612549,1773.184570 
	C824.030640,1799.439941 810.116638,1830.920410 800.202698,1864.422363 
	C789.639526,1900.117920 782.322083,1936.508423 776.207947,1973.180542 
	C775.074341,1979.980103 773.285583,1986.670410 771.317566,1995.595703 
	C768.777527,1991.091187 766.768799,1988.561890 765.818726,1985.682983 
	C757.085266,1959.218872 748.663940,1932.651611 739.886719,1906.202393 
	C733.982056,1888.409302 731.050964,1870.017456 730.035706,1851.495361 
	C728.170532,1817.467285 730.969360,1783.789429 741.291077,1751.024536 
	C746.333069,1735.019287 754.429688,1720.707886 764.853516,1707.674438 
	C781.484253,1686.880127 799.398987,1667.325073 819.052795,1649.267700 
	C841.355225,1628.777100 864.553223,1609.461792 888.805054,1591.340698 
	C925.009766,1564.288208 964.882263,1544.214111 1006.840942,1527.835205 
	C1051.382568,1510.448120 1096.739014,1495.549316 1142.654419,1482.317383 
	C1152.886841,1479.368652 1163.306763,1478.287231 1173.895874,1481.724854 
	C1183.683105,1484.902222 1184.165894,1493.119995 1179.364258,1498.481934 
	C1172.597168,1506.039062 1165.200684,1513.321655 1157.014893,1519.263306 
	C1135.224365,1535.079956 1112.473877,1549.583374 1090.822510,1565.580078 
	C1052.599609,1593.820068 1014.451599,1622.201172 977.152710,1651.638672 
	C951.093384,1672.205566 926.501282,1694.631592 900.753662,1716.724609 
z"/>
<path fill="#E6E9E8" opacity="1.000000" stroke="none" 
	d="
M931.161194,1989.220337 
	C919.816528,2023.030640 910.141174,2056.517578 905.395081,2091.112793 
	C903.013123,2108.474854 902.705872,2126.132812 901.711121,2143.671143 
	C900.396362,2166.849121 899.333862,2190.041748 898.114319,2213.225586 
	C898.085022,2213.782959 897.481934,2214.310059 896.397217,2216.060059 
	C892.572510,2213.171875 888.235596,2210.862305 885.180969,2207.416260 
	C874.178345,2195.003906 864.170288,2182.073730 857.595825,2166.377930 
	C850.689575,2149.889893 841.968750,2134.144531 837.547363,2116.672119 
	C833.318420,2099.959717 829.997192,2083.049805 830.379333,2065.713135 
	C830.854492,2044.161865 830.619751,2022.505127 832.806458,2001.110107 
	C834.509705,1984.444702 838.980347,1967.993286 843.067993,1951.658569 
	C847.818665,1932.674927 852.518005,1913.574463 859.080750,1895.181763 
	C864.175720,1880.902832 871.265381,1867.148438 878.914062,1854.002075 
	C904.612061,1809.832520 937.018372,1770.695190 972.127502,1733.817261 
	C1012.012390,1691.923218 1054.382690,1652.695312 1101.092163,1618.401611 
	C1125.234131,1600.676636 1150.282959,1584.337891 1177.919678,1572.465698 
	C1182.826782,1570.357910 1188.379517,1568.900635 1193.680786,1568.746582 
	C1203.594849,1568.458496 1208.626343,1576.670532 1203.632568,1585.197754 
	C1199.709961,1591.895874 1194.758667,1598.185547 1189.353027,1603.775513 
	C1181.292847,1612.110596 1172.500122,1619.747070 1163.896606,1627.545776 
	C1131.778687,1656.659546 1102.950684,1688.798340 1076.263672,1722.890625 
	C1035.981567,1774.350342 1001.477234,1829.468628 972.729065,1888.137817 
	C956.789978,1920.666138 942.745544,1954.021851 931.161194,1989.220337 
z"/>
<path fill="#E6E9E8" opacity="1.000000" stroke="none" 
	d="
M1149.827881,1250.339355 
	C1113.728394,1248.970825 1078.708618,1246.612671 1043.766113,1242.434692 
	C1014.406738,1238.924683 985.381042,1234.181641 956.936523,1226.130371 
	C929.983459,1218.501343 904.183899,1208.144165 880.467468,1193.005981 
	C867.560852,1184.767700 855.835938,1175.149902 845.576965,1163.735474 
	C840.942505,1158.579102 835.922729,1153.771240 831.163513,1148.724365 
	C822.380615,1139.410645 820.738098,1126.762329 815.866028,1115.623291 
	C814.684326,1112.921509 813.852722,1110.068359 812.817749,1107.300537 
	C809.967041,1099.677368 813.662354,1094.528687 821.714783,1096.135742 
	C841.891724,1100.162476 862.115906,1104.150635 882.017761,1109.321899 
	C951.729431,1127.434814 1021.196411,1146.501709 1091.018433,1164.170532 
	C1111.154297,1169.266113 1132.103882,1171.433105 1152.800171,1173.962036 
	C1187.972656,1178.259888 1223.235962,1181.818604 1258.469238,1185.611572 
	C1279.552124,1187.881104 1300.692993,1189.663574 1321.733032,1192.269531 
	C1360.315552,1197.048462 1398.385132,1204.523438 1435.396484,1216.600220 
	C1448.560059,1220.895386 1461.462036,1226.100220 1474.185059,1231.581909 
	C1478.949341,1233.634521 1484.885864,1235.475708 1486.489502,1243.362549 
	C1480.856567,1243.492188 1475.719971,1243.490967 1470.596436,1243.748047 
	C1440.762939,1245.245361 1410.938721,1246.934326 1381.099243,1248.295166 
	C1361.187256,1249.203369 1341.258179,1249.780884 1321.331665,1250.314941 
	C1292.746338,1251.081299 1264.159302,1251.942993 1235.567383,1252.250488 
	C1214.259521,1252.479614 1192.941284,1251.985474 1171.630981,1251.622559 
	C1164.683472,1251.504272 1157.745972,1250.784180 1149.827881,1250.339355 
z"/>
<path fill="#E6E9E8" opacity="1.000000" stroke="none" 
	d="
M1242.081299,1383.672607 
	C1200.493408,1383.559204 1162.031006,1373.295654 1123.893677,1360.265259 
	C1078.915161,1344.897583 1037.685669,1322.323975 997.268555,1297.907837 
	C994.160095,1296.029907 994.179138,1295.998413 992.262207,1290.844971 
	C994.217712,1290.531860 996.036133,1289.942505 997.834412,1289.998657 
	C1017.083679,1290.599731 1036.332153,1291.243042 1055.576050,1291.995361 
	C1073.493408,1292.695801 1091.411621,1293.416504 1109.317261,1294.360107 
	C1127.193237,1295.301880 1145.051025,1296.589355 1162.923584,1297.605713 
	C1169.895752,1298.002319 1176.885254,1298.147339 1183.869141,1298.277588 
	C1210.109009,1298.767334 1236.368530,1300.008545 1262.584351,1299.401978 
	C1283.074585,1298.927612 1303.502075,1296.015991 1323.974976,1294.413696 
	C1338.199707,1293.300415 1352.452515,1292.536987 1366.696289,1291.676880 
	C1409.188599,1289.111084 1451.714966,1287.448730 1494.285767,1288.454590 
	C1505.113770,1288.710571 1515.958496,1290.219604 1526.682495,1291.882080 
	C1530.594727,1292.488647 1534.178467,1295.215210 1539.682617,1297.808716 
	C1534.707397,1301.880371 1531.442261,1304.974121 1527.777222,1307.484009 
	C1502.545532,1324.762451 1474.246826,1335.150146 1445.136841,1343.472046 
	C1412.587646,1352.776978 1379.999268,1361.977417 1347.244263,1370.518921 
	C1322.536011,1376.962036 1297.411377,1381.448486 1271.774780,1382.359253 
	C1262.199463,1382.699341 1252.630737,1383.230469 1242.081299,1383.672607 
z"/>
<path fill="#E3E6E5" opacity="1.000000" stroke="none" 
	d="
M2455.014648,1026.372070 
	C2449.360107,1040.428467 2442.834473,1044.843994 2429.149414,1044.354248 
	C2418.676270,1043.979370 2411.147705,1037.851807 2407.599609,1027.085693 
	C2404.296387,1017.062073 2407.551270,1008.808716 2414.681885,1001.959778 
	C2421.776855,995.145020 2430.535400,993.815002 2439.576172,997.111206 
	C2449.002441,1000.547913 2454.748047,1007.444519 2455.640625,1017.732422 
	C2455.867188,1020.345398 2455.473877,1023.012146 2455.014648,1026.372070 
z"/>
<path fill="#000000" opacity="1.000000" stroke="none" 
	d="
M1128.206055,2151.871582 
	C1127.507202,2151.087891 1127.059204,2150.139160 1126.611328,2149.190674 
	C1127.257812,2149.585205 1127.904419,2149.979492 1128.761841,2150.886475 
	C1128.972656,2151.399170 1128.456909,2151.706543 1128.206055,2151.871582 
z"/>
</svg>